<svg width="256" height="256" viewBox="0 0 64 64" fill="none" xmlns="http://www.w3.org/2000/svg">
  <defs>
    <linearGradient id="bg" x1="8" y1="8" x2="56" y2="56">
      <stop offset="0" stop-color="#F59E0B"/>
      <stop offset="1" stop-color="#D97706"/>
    </linearGradient>
  </defs>
  <rect x="4" y="4" width="56" height="56" rx="16" fill="url(#bg)"/>
  <g fill="white">
    <path d="M32 17.5c.8 4.5 2.8 6.5 7.3 7.3-4.5.8-6.5 2.8-7.3 7.3-.8-4.5-2.8-6.5-7.3-7.3 4.5-.8 6.5-2.8 7.3-7.3z"/>
    <path d="M45.5 20.5c.35 1.9 1.2 2.75 3.1 3.1-1.9.35-2.75 1.2-3.1 3.1-.35-1.9-1.2-2.75-3.1-3.1 1.9-.35 2.75-.95 3.1-3.1z" opacity=".9"/>
    <path d="M20 37c.3 1.5.95 2.2 2.45 2.45-1.5.3-2.15.95-2.45 2.45-.3-1.5-.95-2.15-2.45-2.45 1.5-.25 2.15-.95 2.45-2.45z" opacity=".8"/>
  </g>
</svg>